<svg id="Layer_1" data-name="Layer 1" xmlns="http://www.w3.org/2000/svg" viewBox="0 0 188.02 188.02"><title>sagitarius</title><path d="M391.81,428.66l-17.62,2.23-8.95-63-80.51,79.48,37.56,37.36-12.86,12.75-37.37-37.22c-0.86.76-55.4,55.12-55.72,55.52H215.7l-11.91-11.91q0-.31,0-0.63c4-3.94,55-54.07,56.36-55l-38.6-38,12.73-11.94,36.77,36.6,80.53-80.59-63-8.87,3-17.65c0.63,0,2.83.45,3.33,0.52q40.9,5.72,81.82,11.37c1.73,0.24,2.86.58,3.14,2.63,2.91,21.29,12,85.54,12,86.38C386.13,429.38,391.81,427.82,391.81,428.66Z" transform="translate(-203.79 -327.76)" fill="#ffffff" /></svg>